<svg xmlns="http://www.w3.org/2000/svg" shape-rendering="geometricPrecision" text-rendering="geometricPrecision" image-rendering="optimizeQuality" fill-rule="evenodd" clip-rule="evenodd" viewBox="0 0 512 395.896"><path fill="#FFD448" d="M135.128 0h73.753c7.717 0 14.031 6.314 14.031 14.031v62.023c0 7.716-6.314 14.03-14.031 14.03h-73.753c-7.717 0-14.031-6.314-14.031-14.03V14.031C121.097 6.314 127.411 0 135.128 0z"/><path fill="#4C80BF" d="M265.45 29.409c19.545 0 37.136 8.361 49.395 21.699-13.746 13.917-23.23 30.463-28.447 48.007h-87.969a69.602 69.602 0 01-.055-2.629c0-37.046 30.031-67.077 67.076-67.077z"/><path fill="#FB5541" fill-rule="nonzero" d="M128.437 235.927L88.409 90.975a13.834 13.834 0 01-.844-4.773c0-7.654 6.207-13.86 13.86-13.86h196.837c-11.099 18.287-16.647 38.994-16.647 59.7 0 29.477 11.247 58.957 33.741 81.451 18.381 18.38 41.432 29.251 65.331 32.612H141.754v-.041c-6.061.003-11.625-4.012-13.317-10.137z"/><path fill="#333" d="M338.693 328.153c18.706 0 33.87 15.165 33.87 33.872 0 18.706-15.164 33.871-33.87 33.871-18.707 0-33.872-15.165-33.872-33.871 0-18.707 15.165-33.872 33.872-33.872zm-148.498 0c18.706 0 33.871 15.165 33.871 33.872 0 18.706-15.165 33.871-33.871 33.871-18.707 0-33.872-15.165-33.872-33.871 0-18.707 15.165-33.872 33.872-33.872z"/><path fill="#B73E30" fill-rule="nonzero" d="M181.828 134.329c-.357-5.358 3.697-9.992 9.055-10.349 5.358-.357 9.993 3.697 10.349 9.055l3.484 51.772c.357 5.358-3.697 9.992-9.055 10.349-5.358.357-9.992-3.696-10.349-9.055l-3.484-51.772zm63.712-.647c0-5.379 4.362-9.741 9.741-9.741 5.38 0 9.741 4.362 9.741 9.741v51.772c0 5.379-4.361 9.741-9.741 9.741-5.379 0-9.741-4.362-9.741-9.741v-51.772z"/><path fill="#484848" fill-rule="nonzero" d="M13.857 44.301C6.206 44.301 0 38.095 0 30.443c0-7.651 6.206-13.857 13.857-13.857H49.92l1.384.069c12.599.23 24.063 2.698 33.707 8.7 10.554 6.567 18.432 16.812 22.59 32.106 14.012 60.083 33.309 120.262 47.732 180.362 6.014 23.773 10.971 36.014 18.764 41.25 6.801 4.568 18.061 5.541 35.784 5.479 7.208-.023 14.235-.171 21.44-.171h148.315c7.652 0 13.858 6.205 13.858 13.857 0 7.652-6.206 13.857-13.858 13.857H230.67c-6.85 0-13.571.05-20.418.063-23.375.062-38.85-1.618-51.531-10.137-14.692-9.867-22.432-26.633-30.222-57.49L80.86 64.712c-2.153-7.925-5.782-12.95-10.462-15.862-5.019-3.123-11.705-4.438-19.439-4.589l-1.039.04H13.857z"/><path fill="#333" fill-rule="nonzero" d="M0 30.443c0-7.651 6.206-13.857 13.857-13.857H49.92l1.384.069c12.599.23 24.063 2.698 33.707 8.7 10.554 6.567 18.432 16.812 22.59 32.106 14.012 60.083 33.309 120.262 47.732 180.362 6.014 23.773 10.971 36.014 18.764 41.25 6.811 4.575 18.094 5.544 35.863 5.479 7.172-.023 14.166-.171 21.335-.171h148.341c7.652 0 13.858 6.205 13.858 13.857H220.3c-53.01.934-64.576-2.426-78.378-57.063L94.23 61.087c-6.314-23.225-22.981-30.519-44.31-30.644H0z"/><path fill="#fff" fill-rule="nonzero" d="M315.356 50.591c22.492-22.494 51.975-33.742 81.452-33.742 29.476 0 58.959 11.248 81.45 33.742C500.753 73.082 512 102.565 512 132.042c0 29.477-11.247 58.957-33.742 81.451-22.491 22.491-51.974 33.742-81.45 33.742-29.477 0-58.96-11.251-81.452-33.742-22.494-22.494-33.741-51.974-33.741-81.451 0-29.477 11.247-58.96 33.741-81.451z"/><path fill="#10A64A" d="M329.46 64.694c37.195-37.195 97.5-37.195 134.695 0 37.195 37.195 37.195 97.5 0 134.695-37.195 37.196-97.5 37.196-134.695 0-37.195-37.195-37.195-97.5 0-134.695z"/><path fill="#fff" fill-rule="nonzero" d="M347.443 129.269l17.036-.225a3.99 3.99 0 012.143.591 68.184 68.184 0 019.966 6.996 66.885 66.885 0 015.151 4.847c5.868-9.134 12.847-18.402 20.162-27.126 9.491-11.316 19.607-21.775 28.623-29.857a3.989 3.989 0 012.677-1.023v-.018h13.158a4.035 4.035 0 014.033 4.033 4.018 4.018 0 01-1.187 2.856c-12.077 13.43-24.465 28.805-35.689 44.561-10.398 14.593-19.811 29.522-27.072 43.539a4.022 4.022 0 01-7.219-.146c-3.982-8.517-8.721-16.329-14.366-23.296-5.642-6.963-12.217-13.137-19.87-18.39a4.024 4.024 0 012.454-7.342z"/></svg>